# xmcd
#
# Track frame offsets:
#	150
#	9326
#	20650
#	30246
#	40646
#	51035
#	60577
#	71376
#	81776
#	94010
#
# Disc length: 1386 seconds
#
# Revision: 0
# Processed by: cddbd v1.5.1PL2 Copyright (c) Steve Scherf et al.
# Submitted via: EasyCDDAExtractor 9.0.0.1
#
DISCID=6905680a
DTITLE=Danny Davis - Christmas With Danny Davis And The Nashville Brass
DYEAR=2003
DGENRE=Country
TTITLE0=Jingling Brass
TTITLE1=White Christmas
TTITLE2=Do You Hear What I Hear?
TTITLE3=Silver Bells
TTITLE4=Winter Wonderland
TTITLE5=Santa Claus Is Coming To Town
TTITLE6=The Christmas Song
TTITLE7=Jingle Bell Rock
TTITLE8=Blue Christmas 
TTITLE9=Silent Night
EXTD=
EXTT0=
EXTT1=
EXTT2=
EXTT3=
EXTT4=
EXTT5=
EXTT6=
EXTT7=
EXTT8=
EXTT9=
PLAYORDER=
